<svg width="269" height="74" viewBox="0 0 269 74" fill="none" xmlns="http://www.w3.org/2000/svg">
<g clip-path="url(#clip0_603_10247)">
<path d="M67.2847 23.2109H50.0852V5.75259C50.0852 3.12248 47.9555 0.979431 45.3178 0.979431H26.4967C23.8697 0.979431 21.7292 3.11166 21.7292 5.75259V15.1366H29.0696V8.32858H42.7341V43.7431H36.7018V51.0922H50.0744V30.56H64.701V43.7431H57.3823V51.0922H67.2739C69.9008 51.0922 72.0413 48.96 72.0413 46.3191V27.9841C72.0413 25.3539 69.9117 23.2109 67.2847 23.2109Z" fill="#247CFF"/>
<path d="M42.7447 65.6715H29.0803V30.56H35.2206V23.2109H21.7399V43.7322H7.34033V30.56H14.5401V23.2109H4.76743C2.12967 23.2109 0 25.3539 0 27.984V46.319C0 48.9492 2.12967 51.0922 4.76743 51.0922H21.7399V68.2583C21.7399 70.8884 23.8696 73.0314 26.5074 73.0314H45.3284C47.9554 73.0314 50.0959 70.8992 50.0959 68.2583V58.3872H42.7555V65.6715H42.7447Z" fill="#247CFF"/>
</g>
<path d="M98.9178 21.0309C102.44 21.0309 105.53 21.7193 108.187 23.0961C110.877 24.4729 112.942 26.442 114.383 29.0034C115.855 31.5329 116.592 34.4786 116.592 37.8405C116.592 41.2024 115.855 44.1481 114.383 46.6775C112.942 49.175 110.877 51.1121 108.187 52.4889C105.53 53.8657 102.44 54.5541 98.9178 54.5541H87.1991V21.0309H98.9178ZM98.6777 48.8388C102.2 48.8388 104.921 47.8782 106.842 45.9571C108.763 44.036 109.724 41.3305 109.724 37.8405C109.724 34.3505 108.763 31.6289 106.842 29.6758C104.921 27.6907 102.2 26.6981 98.6777 26.6981H93.9229V48.8388H98.6777Z" fill="#242424"/>
<path d="M133.44 54.9863C130.878 54.9863 128.573 54.426 126.524 53.3053C124.475 52.1527 122.858 50.5358 121.673 48.4546C120.52 46.3734 119.944 43.972 119.944 41.2504C119.944 38.5289 120.536 36.1275 121.721 34.0463C122.938 31.9651 124.587 30.3642 126.668 29.2436C128.749 28.0909 131.07 27.5146 133.632 27.5146C136.193 27.5146 138.515 28.0909 140.596 29.2436C142.677 30.3642 144.31 31.9651 145.495 34.0463C146.711 36.1275 147.32 38.5289 147.32 41.2504C147.32 43.972 146.695 46.3734 145.447 48.4546C144.23 50.5358 142.565 52.1527 140.452 53.3053C138.371 54.426 136.033 54.9863 133.44 54.9863ZM133.44 49.127C134.656 49.127 135.793 48.8388 136.85 48.2625C137.938 47.6541 138.803 46.7576 139.443 45.5729C140.084 44.3882 140.404 42.9474 140.404 41.2504C140.404 38.721 139.731 36.7839 138.387 35.4391C137.074 34.0623 135.457 33.3739 133.536 33.3739C131.615 33.3739 129.998 34.0623 128.685 35.4391C127.404 36.7839 126.764 38.721 126.764 41.2504C126.764 43.7799 127.388 45.733 128.637 47.1098C129.918 48.4546 131.519 49.127 133.44 49.127Z" fill="#242424"/>
<path d="M150.523 41.2504C150.523 38.4969 151.083 36.0955 152.204 34.0463C153.325 31.9651 154.877 30.3642 156.863 29.2436C158.848 28.0909 161.121 27.5146 163.682 27.5146C166.98 27.5146 169.702 28.3471 171.847 30.012C174.024 31.645 175.481 33.9503 176.218 36.928H168.965C168.581 35.7753 167.925 34.8788 166.996 34.2384C166.1 33.5661 164.979 33.2299 163.634 33.2299C161.713 33.2299 160.192 33.9343 159.072 35.3431C157.951 36.7199 157.391 38.689 157.391 41.2504C157.391 43.7799 157.951 45.749 159.072 47.1578C160.192 48.5346 161.713 49.223 163.634 49.223C166.356 49.223 168.133 48.0063 168.965 45.5729H176.218C175.481 48.4546 174.024 50.7439 171.847 52.4408C169.67 54.1378 166.948 54.9863 163.682 54.9863C161.121 54.9863 158.848 54.426 156.863 53.3053C154.877 52.1527 153.325 50.5518 152.204 48.5026C151.083 46.4214 150.523 44.004 150.523 41.2504Z" fill="#242424"/>
<path d="M179.414 41.1544C179.414 38.4649 179.943 36.0795 180.999 33.9983C182.088 31.9171 183.561 30.3162 185.418 29.1956C187.275 28.0749 189.34 27.5146 191.613 27.5146C193.342 27.5146 194.991 27.8988 196.56 28.6673C198.129 29.4037 199.378 30.3962 200.306 31.645V19.0137H207.126V54.5541H200.306V50.6158C199.474 51.9286 198.305 52.9852 196.8 53.7856C195.296 54.5861 193.551 54.9863 191.565 54.9863C189.324 54.9863 187.275 54.41 185.418 53.2573C183.561 52.1047 182.088 50.4877 180.999 48.4065C179.943 46.2933 179.414 43.8759 179.414 41.1544ZM200.354 41.2504C200.354 39.6175 200.034 38.2247 199.394 37.0721C198.754 35.8874 197.889 34.9909 196.8 34.3825C195.712 33.7422 194.543 33.422 193.294 33.422C192.046 33.422 190.893 33.7261 189.836 34.3345C188.78 34.9428 187.915 35.8394 187.243 37.024C186.603 38.1767 186.282 39.5535 186.282 41.1544C186.282 42.7553 186.603 44.1641 187.243 45.3808C187.915 46.5655 188.78 47.478 189.836 48.1184C190.925 48.7587 192.078 49.0789 193.294 49.0789C194.543 49.0789 195.712 48.7747 196.8 48.1664C197.889 47.526 198.754 46.6295 199.394 45.4769C200.034 44.2922 200.354 42.8834 200.354 41.2504Z" fill="#242424"/>
<path d="M225.508 54.9863C222.947 54.9863 220.641 54.426 218.592 53.3053C216.543 52.1527 214.926 50.5358 213.741 48.4546C212.589 46.3734 212.012 43.972 212.012 41.2504C212.012 38.5289 212.605 36.1275 213.789 34.0463C215.006 31.9651 216.655 30.3642 218.736 29.2436C220.817 28.0909 223.139 27.5146 225.7 27.5146C228.262 27.5146 230.583 28.0909 232.664 29.2436C234.745 30.3642 236.378 31.9651 237.563 34.0463C238.78 36.1275 239.388 38.5289 239.388 41.2504C239.388 43.972 238.764 46.3734 237.515 48.4546C236.298 50.5358 234.633 52.1527 232.52 53.3053C230.439 54.426 228.102 54.9863 225.508 54.9863ZM225.508 49.127C226.725 49.127 227.861 48.8388 228.918 48.2625C230.007 47.6541 230.871 46.7576 231.511 45.5729C232.152 44.3882 232.472 42.9474 232.472 41.2504C232.472 38.721 231.8 36.7839 230.455 35.4391C229.142 34.0623 227.525 33.3739 225.604 33.3739C223.683 33.3739 222.066 34.0623 220.753 35.4391C219.473 36.7839 218.832 38.721 218.832 41.2504C218.832 43.7799 219.457 45.733 220.705 47.1098C221.986 48.4546 223.587 49.127 225.508 49.127Z" fill="#242424"/>
<path d="M242.591 41.2504C242.591 38.4969 243.152 36.0955 244.272 34.0463C245.393 31.9651 246.946 30.3642 248.931 29.2436C250.916 28.0909 253.189 27.5146 255.751 27.5146C259.049 27.5146 261.77 28.3471 263.915 30.012C266.093 31.645 267.549 33.9503 268.286 36.928H261.034C260.65 35.7753 259.993 34.8788 259.065 34.2384C258.168 33.5661 257.047 33.2299 255.703 33.2299C253.782 33.2299 252.261 33.9343 251.14 35.3431C250.019 36.7199 249.459 38.689 249.459 41.2504C249.459 43.7799 250.019 45.749 251.14 47.1578C252.261 48.5346 253.782 49.223 255.703 49.223C258.424 49.223 260.201 48.0063 261.034 45.5729H268.286C267.549 48.4546 266.093 50.7439 263.915 52.4408C261.738 54.1378 259.017 54.9863 255.751 54.9863C253.189 54.9863 250.916 54.426 248.931 53.3053C246.946 52.1527 245.393 50.5518 244.272 48.5026C243.152 46.4214 242.591 44.004 242.591 41.2504Z" fill="#242424"/>
<defs>
<clipPath id="clip0_603_10247">
<rect width="72.0412" height="72.0412" fill="white" transform="translate(0 0.979431)"/>
</clipPath>
</defs>
</svg>
